# xmcd
#
# Track frame offsets:
#	150
#	16302
#	31983
#	46239
#	58865
#	71964
#	90622
#	100254
#	111111
#	122442
#	133695
#	141972
#	152278
#	167775
#	176428
#	192834
#	205612
#	216878
#	229871
#	237800
#	246098
#
# Disc length: 3443 seconds
#
# Revision: 1
# Processed by: cddbd v1.5.2PL0 Copyright (c) Steve Scherf et al.
# Submitted via: audiograbber 1.83.01
#
DISCID=1e0d7115
DTITLE=David Grier, Matt Flinner, Todd Phillips feat. Tony Trischka - All Star 
DTITLE=Bluegrass Jam Along
DYEAR=2006
DGENRE=Bluegrass
TTITLE0=Bill Cheatham
TTITLE1=Blackberry Blossom
TTITLE2=Black Mountain Rag
TTITLE3=Farewell Blues
TTITLE4=I'll Fly Away
TTITLE5=Footprints In The Snow
TTITLE6=All The Good Times Are Past And Gone
TTITLE7=In The Pines
TTITLE8=I Am A Pilgrim
TTITLE9=John Hardy
TTITLE10=Little Maggie
TTITLE11=New River Train
TTITLE12=Old Joe Clark
TTITLE13=Pretty Polly
TTITLE14=Don't That Road Look Rough And Rocky
TTITLE15=Sally Ann
TTITLE16=Sittin' On The Top Of The World
TTITLE17=Soldier's Joy
TTITLE18=Roll In My Sweet Baby's Arms
TTITLE19=Way Downtown
TTITLE20=Down In The Willow Garden
EXTD=Backups, Lead Parts and Note-For-Note Transcriptions for 21 Essential Tune
EXTD=s
EXTT0=
EXTT1=
EXTT2=
EXTT3=
EXTT4=
EXTT5=
EXTT6=
EXTT7=
EXTT8=
EXTT9=
EXTT10=
EXTT11=
EXTT12=
EXTT13=
EXTT14=
EXTT15=
EXTT16=
EXTT17=
EXTT18=
EXTT19=
EXTT20=
PLAYORDER=
